<?xml version="1.0" encoding="UTF-8"?>
<svg version="1.1" xmlns="http://www.w3.org/2000/svg" width="485" height="119">
<path d="M0 0 C160.05 0 320.1 0 485 0 C485 39.27 485 78.54 485 119 C324.95 119 164.9 119 0 119 C0 79.73 0 40.46 0 0 Z " fill="#FDFDFD" transform="translate(0,0)"/>
<path d="M0 0 C4.75354077 0.0469016 7.17283565 1.60384687 10.49142456 4.92494202 C11.00730133 5.46662521 11.5231781 6.00830841 12.0546875 6.56640625 C12.87430466 7.39663551 12.87430466 7.39663551 13.71047974 8.24363708 C15.44412728 10.00515753 17.15953061 11.78328981 18.875 13.5625 C20.05091901 14.7635109 21.22799078 15.96339427 22.40625 17.16210938 C25.28673053 20.09330259 28.14187734 23.04632346 31 26 C31.33 17.42 31.66 8.84 32 0 C34.97 0 37.94 0 41 0 C41.33 10.56 41.66 21.12 42 32 C44.24324574 30.17990788 44.24324574 30.17990788 44.23950195 27.55737305 C44.23889771 26.04977417 44.23889771 26.04977417 44.23828125 24.51171875 C44.25439453 23.41279297 44.27050781 22.31386719 44.28710938 21.18164062 C44.3039509 18.86398763 44.30927787 16.54622057 44.30273438 14.22851562 C44.32271484 13.12572266 44.34269531 12.02292969 44.36328125 10.88671875 C44.36626221 9.87826904 44.36924316 8.86981934 44.37231445 7.83081055 C45.25245553 3.86144617 46.76101538 2.41087365 50 0 C53.42578125 -0.63110352 53.42578125 -0.63110352 57.3125 -0.62890625 C58.3495105 -0.63252419 58.3495105 -0.63252419 59.4074707 -0.63621521 C60.86317708 -0.63523956 62.31892186 -0.62191289 63.77441406 -0.59692383 C65.9941291 -0.56259081 68.2098626 -0.57627843 70.4296875 -0.59570312 C71.84897516 -0.58880414 73.26825262 -0.57913126 74.6875 -0.56640625 C76.61142578 -0.55009155 76.61142578 -0.55009155 78.57421875 -0.53344727 C82.51934086 0.08086943 84.23152787 1.16833736 87 4 C87 4.66 87 5.32 87 6 C87.66 6 88.32 6 89 6 C89.99 6.99 89.99 6.99 91 8 C91.33 5.36 91.66 2.72 92 0 C97.1777593 -0.09908128 102.35496347 -0.17156806 107.53344727 -0.21972656 C109.29396175 -0.23980786 111.05440982 -0.26707879 112.81469727 -0.30175781 C115.34928802 -0.35043112 117.88299495 -0.37300305 120.41796875 -0.390625 C121.20149216 -0.41127014 121.98501556 -0.43191528 122.7922821 -0.45318604 C126.58067862 -0.45473193 128.7490078 -0.16030862 131.97387695 1.89941406 C136.22926701 6.31119573 136.73019097 12.52136903 136.83203125 18.44921875 C136.41385756 23.2108099 134.44035264 25.42427203 130.90258789 28.48754883 C127.37497148 31.17096986 123.73173132 33.6122571 120 36 C118.95585937 36.7425 117.91171875 37.485 116.8359375 38.25 C106.18574723 45.61612584 94.78838906 47.68994845 82 46 C75.98982134 44.30781378 70.88755804 41.88498203 66 38 C63.21835424 39.29470756 60.94869288 40.71636951 58.6015625 42.6875 C57.96404053 43.21706299 57.32651855 43.74662598 56.66967773 44.29223633 C55.99493408 44.85579834 55.32019043 45.41936035 54.625 46 C49.30042945 50.36457228 43.9599943 54.69977871 38.4375 58.8125 C37.89109863 59.23853516 37.34469727 59.66457031 36.78173828 60.10351562 C32.78859503 63.01693637 29.88183775 63.62766485 25 63 C21.46970106 59.92037752 20.32800761 58.15896023 19.0625 53.6875 C20.5802848 47.71754644 25.29086483 44.70844395 30 41 C29.48817777 36.82082347 27.23850155 34.89289972 24.30859375 32.015625 C23.61154076 31.32493927 23.61154076 31.32493927 22.90040588 30.62030029 C21.41968181 29.15632189 19.92885481 27.70313959 18.4375 26.25 C17.42965336 25.25720551 16.42248367 24.2637233 15.41601562 23.26953125 C12.95295552 20.83692943 10.47650611 18.41920906 8 16 C7.67 24.91 7.34 33.82 7 43 C4.03 43 1.06 43 -2 43 C-2.04934656 37.19760386 -2.08569402 31.39532919 -2.10986328 25.59277344 C-2.11993627 23.61781691 -2.13359521 21.64287534 -2.15087891 19.66796875 C-2.17507039 16.83329582 -2.18646991 13.99881962 -2.1953125 11.1640625 C-2.20563507 10.27756012 -2.21595764 9.39105774 -2.22659302 8.47769165 C-2.2269907 6.31714048 -2.12272534 4.15706282 -2 2 C-1.34 1.34 -0.68 0.68 0 0 Z " fill="#A7A7A7" transform="translate(293,48)"/>
<path d="M0 0 C3.125 0.25 3.125 0.25 5 1.375 C6.64835487 4.12225811 6.43657487 6.09481139 6.125 9.25 C4.54296875 11.3046875 4.54296875 11.3046875 2.3125 13.125 C1.50296875 13.79273438 0.6934375 14.46046875 -0.140625 15.1484375 C-4.65010042 18.61429147 -9.22180613 21.97971795 -13.875 25.25 C-11.87669423 29.89748828 -8.54420684 33.63875859 -5.41992188 37.56054688 C-3.4110034 40.11815674 -1.91223931 42.13828208 -0.875 45.25 C2.52833192 43.08615316 5.69628659 40.83446547 8.78125 38.234375 C9.41160156 37.70585938 10.04195313 37.17734375 10.69140625 36.6328125 C11.98820297 35.53773971 13.27723603 34.43341113 14.55859375 33.3203125 C17.66881471 30.73800226 19.38548774 29.34480926 23.4765625 28.8203125 C26.125 29.25 26.125 29.25 28 30.375 C29.71399249 33.23165416 29.59633337 34.95858796 29.125 38.25 C27.31683734 40.56318565 25.12490907 42.27105875 22.8125 44.0625 C22.21759766 44.55169922 21.62269531 45.04089844 21.00976562 45.54492188 C18.41899997 47.63779737 16.30632235 49.18955922 13.125 50.25 C11.64 49.26 11.64 49.26 10.125 48.25 C7.30147392 48.00909551 4.56550122 47.87692645 1.73828125 47.8359375 C1.01394897 47.81829346 0.2896167 47.80064941 -0.45666504 47.7824707 C-3.1583856 47.71947905 -5.86047579 47.67324023 -8.5625 47.625 C-14.605625 47.50125 -20.64875 47.3775 -26.875 47.25 C-26.875 61.11 -26.875 74.97 -26.875 89.25 C-27.205 89.25 -27.535 89.25 -27.875 89.25 C-27.90005615 88.26604248 -27.9251123 87.28208496 -27.95092773 86.26831055 C-28.0451082 82.61729943 -28.1453029 78.96647384 -28.24731445 75.31567383 C-28.29062305 73.73563985 -28.33230106 72.15556031 -28.37231445 70.57543945 C-28.43011583 68.30405952 -28.4937816 66.03290811 -28.55859375 63.76171875 C-28.58366249 62.70219246 -28.58366249 62.70219246 -28.60923767 61.6212616 C-28.7009747 58.5835176 -28.90707686 56.15376942 -29.875 53.25 C-30.535 53.25 -31.195 53.25 -31.875 53.25 C-32.5868042 52.43958252 -33.2986084 51.62916504 -34.03198242 50.79418945 C-37.65722621 47.54999319 -39.55603247 47.60042591 -44.36328125 47.54296875 C-45.06647995 47.52784744 -45.76967865 47.51272614 -46.4941864 47.49714661 C-48.72562003 47.45438505 -50.95569809 47.44544407 -53.1875 47.4375 C-54.70641595 47.41434629 -56.22529988 47.38897911 -57.74414062 47.36132812 C-61.45440133 47.29859394 -65.16421085 47.26616556 -68.875 47.25 C-66.43996894 29.35736041 -56.37636739 20.22002036 -42.65527344 9.65771484 C-41.1135623 8.43863827 -39.64608696 7.12678065 -38.1953125 5.80078125 C-35.875 4.25 -35.875 4.25 -33.30078125 4.22265625 C-30.24288065 5.51770916 -29.01951215 7.02272311 -27.0625 9.6875 C-26.15564453 10.89212891 -26.15564453 10.89212891 -25.23046875 12.12109375 C-23.875 14.25 -23.875 14.25 -23.875 16.25 C-19.23653772 13.25031855 -14.88738324 9.99602981 -10.5625 6.5625 C-9.93021484 6.06427734 -9.29792969 5.56605469 -8.64648438 5.05273438 C-2.52833475 0.2198552 -2.52833475 0.2198552 0 0 Z " fill="#A5A5A5" transform="translate(411.875,0.75)"/>
<path d="M0 0 C1.0370105 -0.00361794 1.0370105 -0.00361794 2.0949707 -0.00730896 C3.55067708 -0.00633331 5.00642186 0.00699336 6.46191406 0.03198242 C8.6816291 0.06631544 10.8973626 0.05262782 13.1171875 0.03320312 C14.53647516 0.04010211 15.95575262 0.04977499 17.375 0.0625 C18.65761719 0.07337646 19.94023437 0.08425293 21.26171875 0.09545898 C25.21739552 0.7114192 26.87466827 1.83727513 29.6875 4.62890625 C31.30051773 7.8549417 30.80803599 11.37600663 30.78515625 14.91796875 C30.7837413 15.73639252 30.78232635 16.55481628 30.78086853 17.39804077 C30.7752629 20.0166995 30.76270948 22.63527329 30.75 25.25390625 C30.74498572 27.02734252 30.74042269 28.80078012 30.73632812 30.57421875 C30.72529164 34.92581407 30.70802325 39.27734575 30.6875 43.62890625 C27.7175 43.62890625 24.7475 43.62890625 21.6875 43.62890625 C21.6875 38.01890625 21.6875 32.40890625 21.6875 26.62890625 C13.4375 26.62890625 5.1875 26.62890625 -3.3125 26.62890625 C-3.3125 32.23890625 -3.3125 37.84890625 -3.3125 43.62890625 C-6.2825 43.62890625 -9.2525 43.62890625 -12.3125 43.62890625 C-12.43633064 38.30876109 -12.52694676 32.98945911 -12.5871582 27.66821289 C-12.6122639 25.85914493 -12.64635595 24.05017803 -12.68969727 22.24145508 C-12.75052579 19.63727874 -12.77874809 17.03444594 -12.80078125 14.4296875 C-12.82658768 13.62429031 -12.8523941 12.81889313 -12.87898254 11.98908997 C-12.88101464 7.8974421 -12.62165904 6.07781115 -10.23901367 2.61816406 C-6.57379015 0.12677829 -4.4113106 -0.00249383 0 0 Z " fill="#080808" transform="translate(350.3125,47.37109375)"/>
<path d="M0 0 C0.83637497 0.00848969 1.67274994 0.01697937 2.5344696 0.02572632 C5.19488651 0.0592028 7.85222489 0.13446413 10.51171875 0.2109375 C12.31961755 0.24104487 14.12756406 0.26841933 15.93554688 0.29296875 C20.35794942 0.35897437 24.77806296 0.46245037 29.19921875 0.5859375 C29.19921875 3.2259375 29.19921875 5.8659375 29.19921875 8.5859375 C17.97921875 8.5859375 6.75921875 8.5859375 -4.80078125 8.5859375 C-4.80078125 11.5559375 -4.80078125 14.5259375 -4.80078125 17.5859375 C6.41921875 17.5859375 17.63921875 17.5859375 29.19921875 17.5859375 C29.19921875 20.5559375 29.19921875 23.5259375 29.19921875 26.5859375 C17.97921875 26.5859375 6.75921875 26.5859375 -4.80078125 26.5859375 C-4.80078125 29.2259375 -4.80078125 31.8659375 -4.80078125 34.5859375 C6.41921875 34.5859375 17.63921875 34.5859375 29.19921875 34.5859375 C29.19921875 37.5559375 29.19921875 40.5259375 29.19921875 43.5859375 C24.02149129 43.70978834 18.84463087 43.80039321 13.66577148 43.8605957 C11.90520199 43.88569811 10.14473628 43.91978778 8.38452148 43.96313477 C5.84983696 44.02397865 3.316533 44.05218863 0.78125 44.07421875 C-0.39403511 44.11292839 -0.39403511 44.11292839 -1.59306335 44.15242004 C-5.85035925 44.15459159 -7.33510164 43.96261767 -10.7746582 41.18041992 C-14.8823374 35.92047212 -14.09553004 30.35576685 -14.15087891 23.94726562 C-14.167398 22.54670549 -14.19463545 21.14622825 -14.23291016 19.74609375 C-14.288013 17.71830905 -14.3096016 15.69249756 -14.32421875 13.6640625 C-14.35394775 11.84503418 -14.35394775 11.84503418 -14.38427734 9.98925781 C-12.87763601 1.20156735 -7.82270919 -0.30078502 0 0 Z " fill="#0C0C0C" transform="translate(116.80078125,47.4140625)"/>
<path d="M0 0 C6.001875 -0.0825 12.00375 -0.165 18.1875 -0.25 C20.07364014 -0.28641602 21.95978027 -0.32283203 23.90307617 -0.36035156 C25.4080288 -0.37204051 26.91299413 -0.38223186 28.41796875 -0.390625 C29.1912854 -0.41108887 29.96460205 -0.43155273 30.76135254 -0.45263672 C34.48532112 -0.45503502 36.76691564 -0.13814938 39.99707031 1.77636719 C42.10294027 4.11428327 42.63225198 4.89662864 42.62890625 7.96875 C42.63083984 8.70480469 42.63277344 9.44085938 42.63476562 10.19921875 C42.61091797 10.95847656 42.58707031 11.71773437 42.5625 12.5 C42.57345703 13.25925781 42.58441406 14.01851562 42.59570312 14.80078125 C42.52375223 20.27864278 42.52375223 20.27864278 40.38549805 23.22363281 C37.19684925 25.59806825 35.21357621 25.4598873 31.265625 25.390625 C29.97011719 25.37773438 28.67460937 25.36484375 27.33984375 25.3515625 C25.97655176 25.31814366 24.61327051 25.28428391 23.25 25.25 C21.87111936 25.22992707 20.49221088 25.21167767 19.11328125 25.1953125 C15.74188862 25.14816016 12.37085627 25.0764174 9 25 C9 30.94 9 36.88 9 43 C6.03 43 3.06 43 0 43 C0 28.81 0 14.62 0 0 Z " fill="#030303" transform="translate(385,48)"/>
<path d="M0 0 C0.83637497 0.00848969 1.67274994 0.01697937 2.5344696 0.02572632 C5.19488651 0.0592028 7.85222489 0.13446413 10.51171875 0.2109375 C12.31961755 0.24104487 14.12756406 0.26841933 15.93554688 0.29296875 C20.35794942 0.35897437 24.77806296 0.46245037 29.19921875 0.5859375 C29.19921875 3.2259375 29.19921875 5.8659375 29.19921875 8.5859375 C17.97921875 8.5859375 6.75921875 8.5859375 -4.80078125 8.5859375 C-4.80078125 11.5559375 -4.80078125 14.5259375 -4.80078125 17.5859375 C-3.94846924 17.55975342 -3.09615723 17.53356934 -2.21801758 17.5065918 C0.95949002 17.42112258 4.13640985 17.35856961 7.31469727 17.3112793 C8.68728977 17.28621133 10.05974977 17.25214668 11.43188477 17.20874023 C13.40972571 17.14776219 15.38856059 17.12232741 17.3671875 17.09765625 C18.55594482 17.07147217 19.74470215 17.04528809 20.96948242 17.01831055 C25.15990385 17.75477814 26.60556909 19.28136251 29.19921875 22.5859375 C29.86328125 26.1796875 29.86328125 26.1796875 29.82421875 30.0859375 C29.83710938 31.375 29.85 32.6640625 29.86328125 33.9921875 C29.0560982 38.36047226 27.56366503 39.79438455 24.19921875 42.5859375 C23.86921875 42.9159375 23.53921875 43.2459375 23.19921875 43.5859375 C20.4602779 43.67452396 17.74668605 43.70117229 15.0078125 43.68359375 C14.18797379 43.6821788 13.36813507 43.68076385 12.52345276 43.67930603 C9.89450493 43.67369039 7.26564102 43.66113529 4.63671875 43.6484375 C2.85872518 43.64342451 1.08073029 43.63886126 -0.69726562 43.63476562 C-5.0651367 43.62371589 -9.43294473 43.60644081 -13.80078125 43.5859375 C-13.80078125 40.6159375 -13.80078125 37.6459375 -13.80078125 34.5859375 C-2.58078125 34.5859375 8.63921875 34.5859375 20.19921875 34.5859375 C20.19921875 31.6159375 20.19921875 28.6459375 20.19921875 25.5859375 C18.91289551 25.6173584 18.91289551 25.6173584 17.60058594 25.64941406 C14.41003403 25.71770277 11.21985529 25.76779263 8.02880859 25.80566406 C6.64945195 25.82574392 5.27018006 25.85301416 3.89111328 25.88769531 C1.90564896 25.93636567 -0.08044379 25.95680168 -2.06640625 25.9765625 C-3.26040039 25.99750977 -4.45439453 26.01845703 -5.68457031 26.04003906 C-9.4125086 25.49679516 -10.51572791 24.50988143 -12.80078125 21.5859375 C-14.19020434 18.80709133 -14.08376381 16.43621734 -14.17578125 13.3359375 C-14.22476563 12.21703125 -14.27375 11.098125 -14.32421875 9.9453125 C-12.95591176 1.1636408 -7.81416518 -0.3004565 0 0 Z " fill="#0A0A0A" transform="translate(257.80078125,47.4140625)"/>
<path d="M0 0 C4.75354077 0.0469016 7.17283565 1.60384687 10.49142456 4.92494202 C11.00730133 5.46662521 11.5231781 6.00830841 12.0546875 6.56640625 C12.87430466 7.39663551 12.87430466 7.39663551 13.71047974 8.24363708 C15.44412728 10.00515753 17.15953061 11.78328981 18.875 13.5625 C20.05091901 14.7635109 21.22799078 15.96339427 22.40625 17.16210938 C25.28673053 20.09330259 28.14187734 23.04632346 31 26 C31.33 17.42 31.66 8.84 32 0 C34.97 0 37.94 0 41 0 C41.04934926 5.65998046 41.08569529 11.31983636 41.10986328 16.97998047 C41.11993582 18.90643494 41.13359443 20.83287408 41.15087891 22.75927734 C41.17507241 25.52445252 41.18647036 28.289426 41.1953125 31.0546875 C41.20563507 31.9193161 41.21595764 32.7839447 41.22659302 33.67477417 C41.22699106 35.78453521 41.12265243 37.89380718 41 40 C39 42 39 42 36.76098633 42.48046875 C32.68282107 41.77078361 30.57566824 39.19473515 27.82421875 36.3125 C27.25419632 35.73540283 26.68417389 35.15830566 26.09687805 34.5637207 C24.28167175 32.72055988 22.48463026 30.86077312 20.6875 29 C19.45884077 27.74625948 18.22903561 26.49364087 16.99804688 25.2421875 C13.98288836 22.17620029 10.99290647 19.08835707 8 16 C7.67 24.91 7.34 33.82 7 43 C4.03 43 1.06 43 -2 43 C-2.04934656 37.19760386 -2.08569402 31.39532919 -2.10986328 25.59277344 C-2.11993627 23.61781691 -2.13359521 21.64287534 -2.15087891 19.66796875 C-2.17507039 16.83329582 -2.18646991 13.99881962 -2.1953125 11.1640625 C-2.20563507 10.27756012 -2.21595764 9.39105774 -2.22659302 8.47769165 C-2.2269907 6.31714048 -2.12272534 4.15706282 -2 2 C-1.34 1.34 -0.68 0.68 0 0 Z " fill="#0C0C0C" transform="translate(293,48)"/>
<path d="M0 0 C2.64 0 5.28 0 8 0 C8.23976562 0.88816406 8.47953125 1.77632812 8.7265625 2.69140625 C10.11912276 6.30949993 11.64695384 8.21398548 14.375 10.9375 C15.14585937 11.73027344 15.91671875 12.52304687 16.7109375 13.33984375 C18.79409472 15.17922334 18.79409472 15.17922334 20.96484375 15.0546875 C23.88104977 13.54340991 25.87915617 11.51630182 28.1875 9.1875 C29.06792969 8.31480469 29.94835937 7.44210938 30.85546875 6.54296875 C32.84124344 4.18825231 33.64365996 2.99744858 34 0 C36.64 0 39.28 0 42 0 C42.71619521 6.86353746 42.71619521 6.86353746 40.875 9.78515625 C39.32335763 11.46206142 37.71251869 12.98804656 36 14.5 C35.14148438 15.304375 35.14148438 15.304375 34.265625 16.125 C32.8612887 17.43571388 31.43292495 18.72060273 30 20 C31.54753313 23.88662057 34.02698746 25.94695045 37.125 28.6875 C41.80531542 33.21314982 41.80531542 33.21314982 42.65625 36.65234375 C42.625 39.125 42.625 39.125 42 43 C39.36 43 36.72 43 34 43 C33.690625 42.030625 33.38125 41.06125 33.0625 40.0625 C30.78692524 34.61896821 26.25450128 30.93340685 22 27 C18.44747536 28.52018789 16.05747694 30.61289458 13.3125 33.3125 C12.52488281 34.07175781 11.73726562 34.83101562 10.92578125 35.61328125 C8.86253467 38.17036778 8.33707903 39.77203984 8 43 C5.03 43 2.06 43 -1 43 C-1.72505213 36.09331781 -1.72505213 36.09331781 0.14111328 33.27929688 C1.71801156 31.67553405 3.3443375 30.20131938 5.0625 28.75 C7.19706435 26.90209745 9.07319169 25.08464577 11 23 C10.57777243 18.69855661 8.09611928 17.07129405 4.9375 14.3125 C0.19137995 9.76891708 0.19137995 9.76891708 -0.66015625 6.34765625 C-0.625 3.875 -0.625 3.875 0 0 Z " fill="#0A0A0A" transform="translate(151,48)"/>
<path d="M0 0 C14.19 0 28.38 0 43 0 C43 2.64 43 5.28 43 8 C37.39 8 31.78 8 26 8 C26 19.55 26 31.1 26 43 C23.03 43 20.06 43 17 43 C17 31.78 17 20.56 17 9 C11.39 9 5.78 9 0 9 C0 6.03 0 3.06 0 0 Z " fill="#0E0E0E" transform="translate(197,48)"/>
<path d="M0 0 C13.86 0 27.72 0 42 0 C42 2.64 42 5.28 42 8 C36.39 8 30.78 8 25 8 C25 19.55 25 31.1 25 43 C22.36 43 19.72 43 17 43 C17 31.45 17 19.9 17 8 C11.39 8 5.78 8 0 8 C0 5.36 0 2.72 0 0 Z " fill="#020202" transform="translate(57,48)"/>
<path d="M0 0 C0.33 0 0.66 0 1 0 C2.34786271 5.62732683 3.54528263 11.30393023 2 17 C-1.91327133 22.72365629 -8.24561004 26.34472958 -14 30 C-15.11600615 30.75772084 -16.22960368 31.51901162 -17.33984375 32.28515625 C-23.17515984 36.18337153 -28.12345049 39.31670799 -35.3125 39.125 C-36.19550781 39.10695312 -37.07851563 39.08890625 -37.98828125 39.0703125 C-38.65214844 39.04710937 -39.31601562 39.02390625 -40 39 C-40 38.67 -40 38.34 -40 38 C-37.69 38 -35.38 38 -33 38 C-33 31.73 -33 25.46 -33 19 C-30.94136719 18.96261719 -28.88273437 18.92523438 -26.76171875 18.88671875 C-24.76600608 18.83804283 -22.77029443 18.78926393 -20.7746582 18.73754883 C-19.38870623 18.70431451 -18.00261939 18.67627774 -16.61645508 18.65356445 C-14.62293157 18.61999383 -12.62978259 18.56612 -10.63671875 18.51171875 C-9.43748779 18.48553467 -8.23825684 18.45935059 -7.00268555 18.43237305 C-4.0369311 18.23409268 -4.0369311 18.23409268 -2.1171875 16.69140625 C-0.23863005 13.84729654 -0.42059144 10.62009819 -0.3125 7.3125 C-0.27833984 6.61060547 -0.24417969 5.90871094 -0.20898438 5.18554688 C-0.12670053 3.45758613 -0.0616676 1.72881928 0 0 Z " fill="#A2A2A2" transform="translate(427,54)"/>
<path d="M0 0 C8.58 0 17.16 0 26 0 C26 2.97 26 5.94 26 9 C17.42 9 8.84 9 0 9 C0 6.03 0 3.06 0 0 Z " fill="#9A9A9A" transform="translate(393,56)"/>
<path d="M0 0 C8.58 0 17.16 0 26 0 C26 2.97 26 5.94 26 9 C17.42 9 8.84 9 0 9 C0 6.03 0 3.06 0 0 Z " fill="#9A9A9A" transform="translate(346,56)"/>
<path d="M0 0 C0.33 0 0.66 0 1 0 C1.27554763 2.77045173 1.52123257 5.53813416 1.75 8.3125 C1.87181641 9.49102539 1.87181641 9.49102539 1.99609375 10.69335938 C2.16207298 12.86031038 2.267752 14.84253681 2 17 C0.140625 19.04296875 0.140625 19.04296875 -2 20 C-2.66 20 -3.32 20 -4 20 C-2.125 16.125 -2.125 16.125 -1 15 C-0.76346477 12.47403741 -0.57826308 9.96892793 -0.4375 7.4375 C-0.39431641 6.72658203 -0.35113281 6.01566406 -0.30664062 5.28320312 C-0.20028223 3.52238088 -0.09961154 1.7612168 0 0 Z " fill="#858585" transform="translate(427,54)"/>
</svg>
